<svg xmlns="http://www.w3.org/2000/svg" version="1.1" xmlns:xlink="http://www.w3.org/1999/xlink" xmlns:svgjs="http://svgjs.com/svgjs" width="1440" height="560" preserveAspectRatio="none" viewBox="0 0 1440 560"><g mask="url(&quot;#SvgjsMask1077&quot;)" fill="none"><rect width="1440" height="560" x="0" y="0" fill="rgba(21, 67, 96, 1)"></rect><path d="M0,489.023C89.889,492.384,145.061,391.859,223.241,347.369C307.436,299.456,435.539,305.394,476.745,217.722C517.876,130.209,449.651,30.489,414.514,-59.598C386.187,-132.224,332.921,-186.888,292.85,-253.756C242.252,-338.19,238.919,-466.377,148.059,-504.241C58.822,-541.429,-34.538,-460.292,-125.729,-428.192C-211.578,-397.972,-304.287,-383.373,-371.045,-321.512C-441.924,-255.832,-501.662,-169.527,-508.86,-73.163C-515.917,21.316,-464.995,110.358,-409.01,186.789C-360.04,253.643,-279.413,281.82,-212.765,331.069C-140.258,384.647,-90.092,485.655,0,489.023" fill="#11364d"></path><path d="M1440 1084.9009999999998C1541.575 1089.963 1639.682 1058.171 1729.516 1010.496 1825.38 959.62 1924.62 900.605 1971.606 802.7760000000001 2018.9070000000002 704.292 1991.857 590.797 1983.409 481.87 1974.359 365.177 1982.8429999999998 242.70600000000002 1920.487 143.656 1853.606 37.418000000000006 1748.991-46.73900000000003 1628.484-81.91700000000003 1508.059-117.07100000000003 1373.753-104.28200000000004 1261.244-48.787000000000035 1156.577 2.840000000000032 1098.6019999999999 111.50299999999999 1036.288 210.18099999999998 982.2080000000001 295.82 931.3340000000001 384.77 923.681 485.765 916.314 582.996 951.262 676.048 994.36 763.517 1036.432 848.903 1091.249 926.856 1168.454 982.5350000000001 1248.535 1040.287 1341.389 1079.987 1440 1084.9009999999998" fill="#195073"></path></g><defs><mask id="SvgjsMask1077"><rect width="1440" height="560" fill="#ffffff"></rect></mask></defs></svg>